<?xml version="1.0" encoding="utf-8"?>
<svg viewBox="21 5.848 314.849 500.652" xmlns="http://www.w3.org/2000/svg">
  <rect x="35.073" y="53.613" width="287.558" height="439.671" style="fill: rgb(255, 255, 255);"/>
  <path d="M 177.827 8.081 L 323.558 106.445 L 32.095 106.445 L 177.827 8.081 Z" style="fill: rgb(255, 255, 255); fill-rule: nonzero;"/>
  <path d="M166.500 7.966 C 161.641 10.301,159.359 12.275,155.480 17.500 C 153.847 19.700,152.059 21.831,151.506 22.235 C 150.953 22.639,145.009 22.976,138.297 22.985 C 131.251 22.994,125.025 23.487,123.565 24.152 C 122.175 24.786,119.162 28.182,116.870 31.699 C 114.579 35.216,111.770 38.748,110.629 39.547 C 108.915 40.748,102.718 41.000,74.936 41.000 C 38.471 41.000,35.102 41.397,28.446 46.474 C 26.540 47.927,24.086 50.872,22.991 53.018 C 21.021 56.879,21.000 59.230,21.000 274.347 L 21.000 491.774 24.250 496.624 C 26.186 499.512,29.320 502.490,32.000 503.987 L 36.500 506.500 178.000 506.500 L 319.500 506.500 323.687 504.101 C 328.805 501.169,333.519 494.827,334.976 488.914 C 335.747 485.786,335.981 422.436,335.782 271.500 L 335.500 58.500 333.284 54.357 C 330.083 48.371,323.747 43.326,317.840 42.059 C 314.925 41.434,299.276 41.000,279.642 41.000 C 254.533 41.000,246.000 40.694,244.822 39.750 C 243.964 39.063,241.404 35.714,239.133 32.308 C 233.024 23.147,232.687 23.000,217.732 23.000 C 203.453 23.000,204.975 23.648,197.517 14.394 C 191.186 6.537,176.016 3.394,166.500 7.966 M182.439 20.538 C 189.867 24.063,192.924 32.920,188.806 38.985 C 185.840 43.355,182.704 44.966,177.132 44.985 C 173.383 44.998,172.215 44.451,168.882 41.118 C 165.765 38.001,165.000 36.503,165.000 33.519 C 165.000 28.121,167.700 23.210,171.886 20.999 C 176.330 18.650,178.280 18.565,182.439 20.538 M156.678 48.968 C 166.480 59.417,175.233 62.100,186.647 58.156 C 192.726 56.055,197.952 51.909,200.890 46.855 C 202.056 44.850,203.719 42.938,204.587 42.605 C 207.506 41.485,220.570 41.962,222.222 43.250 C 224.609 45.109,237.029 65.144,236.413 66.141 C 236.121 66.613,209.160 67.000,176.500 67.000 L 117.118 67.000 125.029 55.079 C 129.379 48.523,133.740 42.950,134.720 42.695 C 135.699 42.440,139.569 42.180,143.320 42.116 L 150.141 42.000 156.678 48.968 M94.328 66.107 C 89.495 72.834,88.799 78.492,92.304 82.567 L 94.826 85.500 176.996 85.767 L 259.166 86.034 262.583 82.617 C 266.992 78.208,266.991 74.979,262.579 67.981 C 260.697 64.997,259.348 62.246,259.581 61.869 C 259.814 61.492,271.760 61.123,286.127 61.049 C 309.411 60.930,312.453 61.100,314.124 62.613 C 315.947 64.262,316.000 70.212,316.000 273.721 C 316.000 416.161,315.669 483.750,314.965 485.066 C 313.949 486.963,311.372 487.000,178.547 487.000 C 104.086 487.000,42.452 486.727,41.582 486.393 C 40.146 485.842,40.000 466.284,40.000 274.964 C 40.000 83.121,40.144 63.999,41.599 62.544 C 42.990 61.153,46.744 60.957,70.555 61.032 L 97.912 61.118 94.328 66.107 M146.859 130.250 C 146.022 130.938,143.166 134.650,140.514 138.500 C 131.679 151.325,136.260 150.000,100.749 150.000 L 69.846 150.000 66.923 152.923 L 64.000 155.846 64.000 187.367 L 64.000 218.888 66.412 221.694 L 68.824 224.500 99.162 224.804 C 115.848 224.971,130.957 224.839,132.738 224.511 C 138.214 223.501,138.452 222.230,139.000 191.000 L 139.500 162.500 147.750 150.139 C 153.057 142.187,156.000 136.803,156.000 135.044 C 156.000 130.185,150.471 127.286,146.859 130.250 M116.754 174.000 C 112.265 180.600,108.034 186.000,107.353 186.000 C 106.672 186.000,103.952 183.426,101.308 180.280 C 93.401 170.871,90.312 168.000,88.100 168.000 C 85.265 168.000,82.000 171.445,82.000 174.436 C 82.000 177.461,101.022 201.443,105.089 203.546 C 110.404 206.294,113.508 203.383,123.264 186.500 L 126.153 181.500 125.585 187.000 C 125.273 190.025,125.013 196.671,125.009 201.768 L 125.000 211.037 101.750 210.768 L 78.500 210.500 78.232 187.250 C 78.084 174.463,78.084 163.909,78.232 163.797 C 78.379 163.686,88.850 163.332,101.500 163.010 C 114.150 162.689,124.594 162.330,124.708 162.213 C 124.823 162.096,121.244 167.400,116.754 174.000 M94.642 165.692 C 94.261 166.072,94.849 167.309,95.948 168.442 C 97.048 169.574,99.269 172.089,100.884 174.031 C 105.170 179.182,109.167 179.263,112.348 174.264 C 114.000 171.667,114.395 170.272,113.622 169.765 C 112.877 169.278,113.005 169.014,114.000 168.982 C 115.062 168.948,114.810 168.359,113.139 166.967 C 111.240 165.385,109.268 165.000,103.056 165.000 C 98.808 165.000,95.022 165.311,94.642 165.692 M165.557 169.223 C 163.900 171.588,163.557 174.790,164.765 176.600 C 166.920 179.828,169.934 180.000,224.212 180.000 C 271.778 180.000,278.832 179.806,280.777 178.443 C 283.606 176.462,283.718 171.718,281.000 169.000 C 279.048 167.048,277.667 167.000,223.057 167.000 L 167.113 167.000 165.557 169.223 M82.000 196.000 L 82.000 208.000 92.250 208.178 C 97.888 208.275,105.256 208.451,108.624 208.568 C 111.992 208.685,116.324 208.287,118.251 207.684 C 121.512 206.663,121.761 206.293,121.840 202.339 C 121.907 199.002,121.612 198.212,120.463 198.653 C 119.658 198.961,119.000 199.581,119.000 200.030 C 119.000 200.479,117.835 202.231,116.411 203.923 C 114.078 206.697,113.260 207.000,108.119 207.000 C 102.707 207.000,102.211 206.783,98.396 202.750 C 96.185 200.412,91.797 195.238,88.645 191.250 C 85.493 187.262,82.708 184.000,82.457 184.000 C 82.206 184.000,82.000 189.400,82.000 196.000 M166.455 200.455 C 163.697 203.212,163.304 206.666,165.420 209.559 C 166.796 211.441,168.564 211.500,223.266 211.500 C 269.623 211.500,279.988 211.255,281.347 210.128 C 283.797 208.094,283.443 202.764,280.686 200.174 L 278.371 198.000 223.640 198.000 L 168.909 198.000 166.455 200.455 M145.317 244.250 C 144.200 245.488,141.363 249.425,139.012 253.000 C 136.661 256.575,134.036 260.063,133.178 260.750 C 132.008 261.687,124.147 262.000,101.759 262.000 C 69.263 262.000,66.957 262.352,64.957 267.613 C 64.424 269.014,64.000 283.525,64.000 300.343 C 64.000 327.081,64.195 330.839,65.692 333.027 C 66.623 334.387,67.860 335.831,68.442 336.235 C 69.024 336.639,84.207 336.976,102.182 336.985 L 134.864 337.000 136.932 334.096 C 138.902 331.329,139.000 329.890,139.000 303.688 L 139.000 276.184 147.487 263.342 C 155.864 250.667,156.996 247.729,154.965 243.934 C 153.482 241.163,147.941 241.344,145.317 244.250 M122.283 278.250 C 121.147 279.488,118.737 282.975,116.927 286.000 C 112.755 292.972,107.971 299.175,107.060 298.794 C 106.674 298.632,102.869 294.563,98.605 289.750 C 90.370 280.457,87.683 279.167,83.829 282.655 C 80.499 285.669,81.542 289.409,87.752 296.724 C 90.915 300.451,95.255 305.750,97.395 308.500 C 102.753 315.384,104.771 317.000,108.007 317.000 C 111.425 317.000,115.190 312.948,120.973 303.046 C 123.236 299.171,125.181 295.999,125.294 295.999 C 125.707 295.996,124.938 320.565,124.457 322.750 C 123.962 324.999,123.955 325.000,102.181 325.000 C 86.574 325.000,80.060 324.660,79.200 323.800 C 77.499 322.099,77.499 278.901,79.200 277.200 C 80.061 276.339,86.617 276.000,102.374 276.000 L 124.349 276.000 122.283 278.250 M166.039 281.189 C 163.451 283.966,163.436 287.436,166.000 290.000 C 167.952 291.952,169.333 292.000,223.845 292.000 C 276.677 292.000,279.779 291.901,281.345 290.171 C 283.542 287.744,283.450 282.717,281.171 280.655 C 279.516 279.157,274.073 279.000,223.710 279.000 L 168.078 279.000 166.039 281.189 M96.628 281.250 C 97.038 281.938,98.752 284.179,100.437 286.232 C 102.978 289.328,104.142 289.967,107.266 289.982 C 110.583 289.998,111.229 289.588,112.678 286.548 C 115.224 281.210,113.586 280.000,103.819 280.000 C 97.738 280.000,96.056 280.292,96.628 281.250 M82.000 309.352 L 82.000 320.703 96.912 321.398 C 105.114 321.780,114.114 321.788,116.912 321.417 L 122.000 320.742 122.000 315.871 C 122.000 313.192,121.556 311.000,121.014 311.000 C 120.472 311.000,118.880 312.736,117.476 314.857 C 113.669 320.610,108.252 322.459,103.289 319.700 C 101.170 318.523,97.167 314.037,88.500 303.133 C 82.530 295.620,82.000 296.127,82.000 309.352 M167.763 311.552 C 162.772 314.285,162.914 320.870,168.021 323.511 C 172.287 325.717,274.666 325.741,278.928 323.537 C 283.522 321.161,284.494 315.663,280.896 312.405 C 278.887 310.587,276.316 310.490,224.646 310.276 C 178.122 310.084,170.115 310.264,167.763 311.552 M146.215 355.750 C 145.111 356.712,141.828 361.100,138.920 365.500 C 136.011 369.900,133.453 373.725,133.235 374.000 C 133.017 374.275,118.435 374.725,100.832 375.000 L 68.825 375.500 66.413 378.306 L 64.000 381.112 64.000 412.421 C 64.000 442.582,64.076 443.827,66.073 446.365 L 68.145 449.000 101.958 449.000 L 135.770 449.000 137.341 446.603 C 138.656 444.596,138.959 439.590,139.206 415.853 L 139.500 387.500 147.750 375.060 C 156.615 361.694,157.669 358.282,153.777 355.557 C 150.887 353.532,148.693 353.588,146.215 355.750 M123.017 389.983 C 121.926 391.074,118.628 395.687,115.689 400.233 C 112.750 404.780,109.593 409.118,108.673 409.872 C 106.548 411.616,105.749 410.983,97.827 401.289 C 91.326 393.333,88.425 391.837,84.493 394.413 C 80.229 397.206,81.164 400.666,88.871 410.623 C 98.964 423.663,105.192 430.000,107.916 430.000 C 111.024 430.000,115.722 424.698,121.188 415.020 L 125.632 407.150 125.189 421.325 C 124.910 430.237,124.328 435.773,123.623 436.235 C 121.620 437.545,80.543 437.143,79.200 435.800 C 77.446 434.046,77.494 389.371,79.250 388.662 C 79.938 388.385,90.512 388.122,102.750 388.079 C 124.938 388.000,124.994 388.006,123.017 389.983 M172.500 390.738 C 164.805 391.512,161.627 397.718,166.455 402.545 L 168.909 405.000 223.766 405.000 C 277.590 405.000,278.664 404.962,280.811 402.961 C 283.283 400.658,283.678 396.310,281.666 393.558 C 280.888 392.494,278.282 391.397,275.416 390.926 C 270.552 390.128,180.216 389.963,172.500 390.738 M94.534 391.765 C 95.103 392.169,97.294 394.637,99.404 397.250 C 102.719 401.354,103.739 402.000,106.905 402.000 C 109.903 402.000,110.886 401.463,112.315 399.045 C 113.428 397.161,113.829 395.167,113.422 393.545 C 112.793 391.037,112.642 391.000,103.142 391.015 C 97.839 391.024,93.965 391.361,94.534 391.765 M82.000 421.345 L 82.000 432.690 98.250 433.339 C 107.188 433.697,116.116 433.719,118.092 433.389 C 121.545 432.813,121.690 432.620,121.850 428.395 C 121.941 425.978,121.693 424.000,121.299 424.000 C 120.904 424.000,118.666 426.085,116.326 428.634 C 112.178 433.152,111.952 433.255,107.286 432.735 C 103.004 432.258,101.934 431.586,97.129 426.351 C 94.175 423.133,89.958 418.137,87.759 415.250 C 85.559 412.363,83.364 410.000,82.880 410.000 C 82.396 410.000,82.000 415.105,82.000 421.345 M167.344 423.996 C 163.041 425.732,163.442 433.561,167.957 435.977 C 169.192 436.638,188.952 437.000,223.799 437.000 C 276.846 437.000,277.774 436.966,280.365 434.927 C 282.281 433.421,283.000 431.934,283.000 429.484 C 283.000 422.797,284.801 422.993,224.027 423.063 C 194.037 423.098,168.530 423.518,167.344 423.996 " stroke="none" fill-rule="evenodd" style=""/>
</svg>